{"title":"[MARATHI] Kolha Aani Karkocha - Animation - Kids [TMB]","uid":8110909,"size":25514262,"categoryP":"video","categoryS":"other","magnet":"?xt=urn:btih:dad16723446deeb60a6a2fa897d70309a2217088&amp;dn=%5BMARATHI%5D+Kolha+Aani+Karkocha+-+Animation+-+Kids+%5BTMB%5D&amp;tr=udp%3A%2F%2Ftracker.openbittorrent.com%3A80&amp;tr=udp%3A%2F%2Fopen.demonii.com%3A1337&amp;tr=udp%3A%2F%2Ftracker.coppersurfer.tk%3A6969&amp;tr=udp%3A%2F%2Fexodus.desync.com%3A6969","seeders":1,"leechers":0,"uploader":"SJonam","files":1,"time":1360182200,"description":" &lt;a href=&quot;http://i26.photobucket.com/albums/c119/manojb/good.gif&quot; rel=&quot;nofollow&quot; target=&quot;_NEW&quot;&gt;http://i26.photobucket.com/albums/c119/manojb/good.gif&lt;/a&gt; &lt;a href=&quot;\nhttp://i26.photobucket.com/albums/c119/manojb/vlcsnap-2013-02-07-00h12m25s79.png&quot; rel=&quot;nofollow&quot; target=&quot;_NEW&quot;&gt;\nhttp://i26.photobucket.com/albums/c119/manojb/vlcsnap-2013-02-07-00h12m25s79.png&lt;/a&gt; &lt;a href=&quot;\nhttp://i26.photobucket.com/albums/c119/manojb/vlcsnap-2013-02-07-00h12m32s149.png&quot; rel=&quot;nofollow&quot; target=&quot;_NEW&quot;&gt;\nhttp://i26.photobucket.com/albums/c119/manojb/vlcsnap-2013-02-07-00h12m32s149.png&lt;/a&gt; &lt;a href=&quot;\nhttp://i26.photobucket.com/albums/c119/manojb/vlcsnap-2013-02-07-00h12m45s18.png&quot; rel=&quot;nofollow&quot; target=&quot;_NEW&quot;&gt;\nhttp://i26.photobucket.com/albums/c119/manojb/vlcsnap-2013-02-07-00h12m45s18.png&lt;/a&gt; &lt;a href=&quot;\nhttp://i26.photobucket.com/albums/c119/manojb/vlcsnap-2013-02-07-00h12m55s121.png&quot; rel=&quot;nofollow&quot; target=&quot;_NEW&quot;&gt;\nhttp://i26.photobucket.com/albums/c119/manojb/vlcsnap-2013-02-07-00h12m55s121.png&lt;/a&gt;\n\nInfo - \nAnimated Marathi Story - Kolha Aani Karkocha. Watch the classic story of the Fox and the Strok in Marathi which teaches the great moral of Tit for Tat.\n\nMedia Info - \nGeneral\nComplete name                  : Kolha Aani Karkocha - Animation - Kids [TMB].avi\nFormat                         : AVI\nFormat/Info                    : Audio Video Interleave\nFile size                      : 24.3 MiB\nDuration                       : 4mn 41s\nOverall bit rate               : 724 Kbps\n\nVideo\nID                             : 0\nFormat                         : MPEG-4 Visual\nFormat profile                 : Advanced Simple@L1\nFormat settings, BVOP          : 2\nFormat settings, QPel          : No\nFormat settings, GMC           : No warppoints\nFormat settings, Matrix        : Default (H.263)\nCodec ID                       : DIVX\nCodec ID/Info                  : Project Mayo\nCodec ID/Hint                  : DivX 4\nDuration                       : 4mn 41s\nBit rate                       : 578 Kbps\nWidth                          : 480 pixels\nHeight                         : 360 pixels\nDisplay aspect ratio           : 4:3\nFrame rate                     : 25.000 fps\nColor space                    : YUV\nChroma subsampling             : 4:2:0\nBit depth                      : 8 bits\nScan type                      : Progressive\nCompression mode               : Lossy\nBits/(Pixel*Frame)             : 0.134\nStream size                    : 19.4 MiB (80%)\nWriting library                : Lavc54.59.100\n\nAudio\nID                             : 1\nFormat                         : AC-3\nFormat/Info                    : Audio Coding 3\nMode extension                 : CM (complete main)\nFormat settings, Endianness    : Big\nCodec ID                       : 2000\nDuration                       : 4mn 41s\nSource duration                : 4mn 41s\nBit rate mode                  : Constant\nBit rate                       : 128 Kbps\nChannel(s)                     : 2 channels\nChannel positions              : Front: L R\nSampling rate                  : 44.1 KHz\nBit depth                      : 16 bits\nCompression mode               : Lossy\nStream size                    : 4.30 MiB (18%)\nAlignment                      : Aligned on interleaves\nInterleave, duration           : 35 ms (0.87 video frame)\n\nRipper : Manojvb\n\nExtreme 24x7 Seeding\n\n\nEnjoy TMB Release!","torrent":{"xt":"urn:btih:dad16723446deeb60a6a2fa897d70309a2217088","amp;dn":"%5BMARATHI%5D+Kolha+Aani+Karkocha+-+Animation+-+Kids+%5BTMB%5D","amp;tr":["udp%3A%2F%2Ftracker.openbittorrent.com%3A80","udp%3A%2F%2Fopen.demonii.com%3A1337","udp%3A%2F%2Ftracker.coppersurfer.tk%3A6969","udp%3A%2F%2Fexodus.desync.com%3A6969"],"infoHash":"dad16723446deeb60a6a2fa897d70309a2217088","infoHashBuffer":{"type":"Buffer","data":[218,209,103,35,68,109,238,182,10,106,47,168,151,215,3,9,162,33,112,136]},"announce":[],"urlList":[]}}